<?xml version="1.0" encoding="UTF-8"?>
<svg xmlns="http://www.w3.org/2000/svg" version="1.1" viewBox="0 0 160 170">
  <defs>
    <style>
      .cls-1 {
        fill: #c7ecee;
      }

      .cls-2, .cls-3 {
        fill: #222f3e;
      }

      .cls-4 {
        stroke: #22a6b3;
      }

      .cls-4, .cls-5, .cls-6 {
        fill: none;
        stroke-miterlimit: 10;
      }

      .cls-3 {
        font-family: SourceSansPro-Regular, 'SourceSansPro Regular';
        font-size: 14px;
      }

      .cls-7 {
        fill: #fff;
      }

      .cls-5 {
        stroke: #fff;
        stroke-width: .2px;
      }

      .cls-8 {
        fill: #01a3a4;
      }

      .cls-6 {
        stroke: #222f3e;
      }
    </style>
  </defs>
  <!-- Generator: Adobe Illustrator 28.7.1, SVG Export Plug-In . SVG Version: 1.2.0 Build 142)  -->
  <g>
    <g id="OBJECTS">
      <g>
        <circle class="cls-1" cx="79.6" cy="69.5" r="41.5"/>
        <circle class="cls-4" cx="80.1" cy="70" r="49.5"/>
        <g>
          <circle class="cls-7" cx="74.6" cy="39.8" r="1"/>
          <circle class="cls-7" cx="55.1" cy="42.3" r="1"/>
          <circle class="cls-7" cx="92.1" cy="48.3" r="1"/>
          <circle class="cls-7" cx="72.1" cy="89.3" r="1"/>
          <circle class="cls-7" cx="43.1" cy="61.3" r="1"/>
          <circle class="cls-7" cx="104.1" cy="40.3" r="1"/>
          <circle class="cls-7" cx="68.1" cy="103.3" r="1"/>
          <circle class="cls-7" cx="91.1" cy="103.3" r="1"/>
          <circle class="cls-7" cx="85.1" cy="31.3" r="1"/>
          <circle class="cls-7" cx="115.1" cy="74.3" r="1"/>
          <circle class="cls-7" cx="50.1" cy="73.3" r="1"/>
          <circle class="cls-7" cx="100" cy="68" r="1"/>
          <circle class="cls-7" cx="60" cy="59" r="1"/>
          <circle class="cls-7" cx="55.1" cy="88.3" r="1"/>
          <circle class="cls-7" cx="98.1" cy="88.3" r="1"/>
          <circle class="cls-7" cx="112" cy="59" r="1"/>
        </g>
      </g>
      <text class="cls-3" transform="translate(54.5 145)"><tspan x="0" y="0">VEGANO</tspan></text>
      <polyline class="cls-6" points="98 58.9 78.9 92 59.8 58.9"/>
      <g>
        <path class="cls-8" d="M93.1,67.5l14.3-20.5c-1.2.2-7.3,1.4-11.4,7.1-4.2,6-3.2,12.3-2.9,13.4Z"/>
        <path class="cls-2" d="M104.7,60.1c4-5.8,2.9-12,2.7-13.1l-14.3,20.5c.7-.1,3.3-.6,6.1-2.3.9-.5,1.7-1.1,2.6-1.9,1-.9,2-2,2.9-3.2Z"/>
        <polyline class="cls-5" points="95.2 64.6 99.2 65.2 97.6 61.1 102.3 62.9 100.1 57.5 105 59.6 102.3 54.3 107 54.9 105.2 50.2 107.7 50"/>
      </g>
    </g>
  </g>
</svg>