<?xml version="1.0" encoding="UTF-8"?>
<svg xmlns="http://www.w3.org/2000/svg" version="1.1" viewBox="0 0 160 170">
  <defs>
    <style>
      .cls-1 {
        fill: #c7ecee;
      }

      .cls-2, .cls-3 {
        fill: #222f3e;
      }

      .cls-4 {
        stroke: #2c3e50;
        stroke-width: .5px;
      }

      .cls-4, .cls-5 {
        fill: none;
        stroke-miterlimit: 10;
      }

      .cls-5 {
        stroke: #22a6b3;
      }

      .cls-3 {
        font-family: SourceSansPro-Regular, 'SourceSansPro Regular';
        font-size: 14px;
      }

      .cls-6 {
        fill: #22a6b3;
      }

      .cls-7 {
        fill: #fff;
      }
    </style>
  </defs>
  <!-- Generator: Adobe Illustrator 28.7.1, SVG Export Plug-In . SVG Version: 1.2.0 Build 142)  -->
  <g>
    <g id="OBJECTS">
      <g>
        <circle class="cls-1" cx="79.6" cy="72.5" r="41.5"/>
        <circle class="cls-5" cx="80.1" cy="73" r="49.5"/>
        <g>
          <circle class="cls-7" cx="74.6" cy="42.8" r="1"/>
          <circle class="cls-7" cx="55.1" cy="45.3" r="1"/>
          <circle class="cls-7" cx="92.1" cy="51.3" r="1"/>
          <circle class="cls-7" cx="72.1" cy="92.3" r="1"/>
          <circle class="cls-7" cx="43.1" cy="64.3" r="1"/>
          <circle class="cls-7" cx="104.1" cy="43.3" r="1"/>
          <circle class="cls-7" cx="68.1" cy="106.3" r="1"/>
          <circle class="cls-7" cx="91.1" cy="106.3" r="1"/>
          <circle class="cls-7" cx="85.1" cy="34.3" r="1"/>
          <circle class="cls-7" cx="115.1" cy="77.3" r="1"/>
          <circle class="cls-7" cx="50.1" cy="76.3" r="1"/>
          <circle class="cls-7" cx="55.1" cy="91.3" r="1"/>
          <circle class="cls-7" cx="98.1" cy="91.3" r="1"/>
        </g>
      </g>
      <text class="cls-3" transform="translate(42.5 145)"><tspan x="0" y="0">GLUTEN FREE</tspan></text>
      <g>
        <path class="cls-6" d="M76.1,64.3c4.1,4.9,3.8,10.4,3.7,11.5-1.1,0-6.6-.5-10.9-5.3-4.4-4.9-4-10.8-4-11.8,1,0,6.8.5,11.1,5.5Z"/>
        <path class="cls-2" d="M85.7,64.3c-4.1,4.9-3.8,10.4-3.7,11.5,1.1,0,6.6-.5,10.9-5.3,4.4-4.9,4-10.8,4-11.8-1,0-6.8.5-11.1,5.5Z"/>
        <path class="cls-2" d="M76.1,80.3c4.1,4.9,3.8,10.4,3.7,11.5-1.1,0-6.6-.5-10.9-5.3-4.4-4.9-4-10.8-4-11.8,1,0,6.8.5,11.1,5.5Z"/>
        <path class="cls-6" d="M85.7,80.3c-4.1,4.9-3.8,10.4-3.7,11.5,1.1,0,6.6-.5,10.9-5.3,4.4-4.9,4-10.8,4-11.8-1,0-6.8.5-11.1,5.5Z"/>
        <path class="cls-2" d="M76.1,49.3c4.1,4.9,3.8,10.4,3.7,11.5-1.1,0-6.6-.5-10.9-5.3-4.4-4.9-4-10.8-4-11.8,1,0,6.8.5,11.1,5.5Z"/>
        <path class="cls-6" d="M85.7,49.3c-4.1,4.9-3.8,10.4-3.7,11.5,1.1,0,6.6-.5,10.9-5.3,4.4-4.9,4-10.8,4-11.8-1,0-6.8.5-11.1,5.5Z"/>
        <path class="cls-6" d="M76.1,95.3c4.1,4.9,3.8,10.4,3.7,11.5-1.1,0-6.6-.5-10.9-5.3-4.4-4.9-4-10.8-4-11.8,1,0,6.8.5,11.1,5.5Z"/>
        <path class="cls-2" d="M85.7,95.3c-4.1,4.9-3.8,10.4-3.7,11.5,1.1,0,6.6-.5,10.9-5.3,4.4-4.9,4-10.8,4-11.8-1,0-6.8.5-11.1,5.5Z"/>
        <line class="cls-4" x1="80.9" y1="49.9" x2="80.9" y2="113.4"/>
      </g>
    </g>
  </g>
</svg>