<?xml version="1.0" encoding="UTF-8"?>
<svg xmlns="http://www.w3.org/2000/svg" version="1.1" viewBox="0 0 160 170">
  <defs>
    <style>
      .cls-1 {
        fill: #c7ecee;
      }

      .cls-2, .cls-3 {
        fill: #222f3e;
      }

      .cls-4 {
        stroke: #22a6b3;
      }

      .cls-4, .cls-5, .cls-6 {
        fill: none;
        stroke-miterlimit: 10;
      }

      .cls-5 {
        stroke: #222f3e;
        stroke-width: .5px;
      }

      .cls-3 {
        font-family: SourceSansPro-Regular, 'SourceSansPro Regular';
        font-size: 14px;
      }

      .cls-7 {
        fill: #fff;
      }

      .cls-6 {
        stroke: #fff;
        stroke-width: .2px;
      }

      .cls-8 {
        fill: #01a3a4;
      }
    </style>
  </defs>
  <!-- Generator: Adobe Illustrator 28.7.1, SVG Export Plug-In . SVG Version: 1.2.0 Build 142)  -->
  <g>
    <g id="OBJECTS">
      <g>
        <circle class="cls-1" cx="79.6" cy="69.5" r="41.5"/>
        <circle class="cls-4" cx="80.1" cy="70" r="49.5"/>
        <g>
          <circle class="cls-7" cx="74.6" cy="39.8" r="1"/>
          <circle class="cls-7" cx="55.1" cy="42.3" r="1"/>
          <circle class="cls-7" cx="92.1" cy="48.3" r="1"/>
          <circle class="cls-7" cx="72.1" cy="89.3" r="1"/>
          <circle class="cls-7" cx="43.1" cy="61.3" r="1"/>
          <circle class="cls-7" cx="104.1" cy="40.3" r="1"/>
          <circle class="cls-7" cx="68.1" cy="103.3" r="1"/>
          <circle class="cls-7" cx="91.1" cy="103.3" r="1"/>
          <circle class="cls-7" cx="85.1" cy="31.3" r="1"/>
          <circle class="cls-7" cx="115.1" cy="74.3" r="1"/>
          <circle class="cls-7" cx="50.1" cy="73.3" r="1"/>
          <circle class="cls-7" cx="100" cy="68" r="1"/>
          <circle class="cls-7" cx="60" cy="59" r="1"/>
          <circle class="cls-7" cx="55.1" cy="88.3" r="1"/>
          <circle class="cls-7" cx="98.1" cy="88.3" r="1"/>
          <circle class="cls-7" cx="112" cy="59" r="1"/>
        </g>
      </g>
      <text class="cls-3" transform="translate(39.5 146)"><tspan x="0" y="0">VEGETARIANO</tspan></text>
      <line class="cls-5" x1="81.1" y1="53.8" x2="80.6" y2="111"/>
      <g>
        <path class="cls-8" d="M56.5,43.6l23.2,33.3c-1.9-.3-11.8-2.2-18.4-11.5-6.9-9.7-5.1-20-4.8-21.8Z"/>
        <path class="cls-2" d="M75.3,55.7c6.4,9.5,4.8,19.4,4.4,21.3l-23.2-33.3c1.1.2,5.3,1,9.9,3.7,1.4.8,2.8,1.8,4.2,3,1.6,1.4,3.2,3.2,4.7,5.3Z"/>
        <polyline class="cls-6" points="59.9 48.5 66.4 47.4 63.8 54.1 71.5 51.2 67.9 59.9 75.9 56.6 71.4 65 79.2 64.1 76.2 71.8 80.2 72.1"/>
      </g>
      <g>
        <path class="cls-8" d="M81.5,92.9l23.2-33.3c-1.9.3-11.8,2.2-18.4,11.5-6.9,9.7-5.1,20-4.8,21.8Z"/>
        <path class="cls-2" d="M100.3,80.9c6.4-9.5,4.8-19.4,4.4-21.3l-23.2,33.3c1.1-.2,5.3-1,9.9-3.7,1.4-.8,2.8-1.8,4.2-3,1.6-1.4,3.2-3.2,4.7-5.3Z"/>
        <polyline class="cls-6" points="84.9 88.1 91.4 89.2 88.8 82.5 96.5 85.4 92.9 76.7 100.9 80 96.4 71.5 104.2 72.5 101.2 64.8 105.2 64.4"/>
      </g>
    </g>
  </g>
</svg>